<svg width="24" height="24" viewBox="0 0 24 24" fill="none" xmlns="http://www.w3.org/2000/svg">
<g clip-path="url(#clip0_2_2747)">
<path d="M12.8926 12.3379C12.8926 11.9237 12.5568 11.5879 12.1426 11.5879C11.7284 11.5879 11.3926 11.9237 11.3926 12.3379H12.8926ZM11.3926 18.1738C11.3926 18.588 11.7284 18.9238 12.1426 18.9238C12.5568 18.9238 12.8926 18.588 12.8926 18.1738H11.3926ZM15.0605 16.0059C15.4748 16.0059 15.8105 15.6701 15.8105 15.2559C15.8105 14.8416 15.4748 14.5059 15.0605 14.5059V16.0059ZM9.22461 14.5059C8.8104 14.5059 8.47461 14.8416 8.47461 15.2559C8.47461 15.6701 8.8104 16.0059 9.22461 16.0059V14.5059ZM11.3926 12.3379V18.1738H12.8926V12.3379H11.3926ZM15.0605 14.5059H9.22461V16.0059H15.0605V14.5059Z" fill="#AEAEB2"/>
<path d="M3.0192 16.4915L3.76618 16.5588L3.0192 16.4915ZM20.966 16.3536L20.2214 16.443L20.2214 16.443L20.966 16.3536ZM20.4891 12.383L21.2338 12.2935L21.2338 12.2935L20.4891 12.383ZM3.40952 12.1588L2.66254 12.0915L2.66254 12.0915L3.40952 12.1588ZM16.5 8.24639L16.3733 8.98561L16.5 8.24639ZM19.7445 12.4724L20.2214 16.443L21.7107 16.2641L21.2338 12.2935L19.7445 12.4724ZM16.1348 20.925H7.86496V22.425H16.1348V20.925ZM3.76618 16.5588L4.15649 12.2261L2.66254 12.0915L2.27223 16.4242L3.76618 16.5588ZM7.86496 20.925C5.43357 20.925 3.55624 18.8892 3.76618 16.5588L2.27223 16.4242C1.98022 19.6657 4.58556 22.425 7.86496 22.425V20.925ZM20.2214 16.443C20.5059 18.812 18.6145 20.925 16.1348 20.925V22.425C19.4789 22.425 22.1066 19.5604 21.7107 16.2641L20.2214 16.443ZM7.85146 7.425C5.16528 7.425 2.90161 9.43763 2.66254 12.0915L4.15649 12.2261C4.32364 10.3706 5.91594 8.925 7.85146 8.925V7.425ZM7.85146 8.925H7.95V7.425H7.85146V8.925ZM7.95 8.925H15.6579V7.425H7.95V8.925ZM8.6937 8.078C8.59424 7.31547 8.66239 6.19025 9.13664 5.29027C9.57764 4.45339 10.3939 3.75 12 3.75V2.25C9.82609 2.25 8.50487 3.27161 7.80961 4.59098C7.14761 5.84725 7.08076 7.30953 7.2063 8.272L8.6937 8.078ZM15.6579 8.925C15.9019 8.925 16.141 8.94579 16.3733 8.98561L16.6267 7.50716C16.3111 7.45307 15.9872 7.425 15.6579 7.425V8.925ZM16.3733 8.98561C18.1437 9.28901 19.531 10.6954 19.7445 12.4724L21.2338 12.2935C20.9378 9.82928 19.0226 7.91777 16.6267 7.50716L16.3733 8.98561ZM12 3.75C13.6075 3.75 14.5173 4.46953 15.0541 5.35589C15.6193 6.28932 15.7837 7.44361 15.7507 8.21425L17.2493 8.27852C17.2913 7.30037 17.0957 5.83147 16.3372 4.5789C15.5502 3.27926 14.1725 2.25 12 2.25V3.75Z" fill="#AEAEB2"/>
</g>
<defs>
<clipPath id="clip0_2_2747">
<rect width="24" height="24" fill="white"/>
</clipPath>
</defs>
</svg>
