<svg width="24" height="24" viewBox="0 0 24 24" fill="none" xmlns="http://www.w3.org/2000/svg">
<path d="M9.95685 11.6638L9.4775 11.087L9.4775 11.087L9.95685 11.6638ZM6.96708 14.2479L6.46602 13.6898L6.96708 14.2479ZM13.9863 11.7183L13.4967 12.2864L13.4967 12.2864L13.9863 11.7183ZM16.8712 14.2476L16.3718 14.8071L16.3718 14.8071L16.8712 14.2476ZM9.0547 19.8866L9.06939 19.1367L9.0547 19.8866ZM14.8221 19.8801L14.8059 19.1303L14.8059 19.1303L14.8221 19.8801ZM9.4775 11.087C8.38998 11.9907 7.38133 12.868 6.46602 13.6898L7.46814 14.806C8.37079 13.9955 9.36493 13.1309 10.4362 12.2406L9.4775 11.087ZM13.4967 12.2864C14.5558 13.1993 15.5138 14.0412 16.3718 14.8071L17.3707 13.6881C16.5063 12.9164 15.5418 12.0688 14.476 11.1502L13.4967 12.2864ZM9.04001 20.6364C10.9363 20.6736 12.9099 20.6714 14.8382 20.6299L14.8059 19.1303C12.8979 19.1713 10.9448 19.1734 9.06939 19.1367L9.04001 20.6364ZM16.3718 14.8071C18.1514 16.3958 17.1594 19.0796 14.8059 19.1303L14.8382 20.6299C18.5848 20.5493 20.1427 16.1627 17.3707 13.6881L16.3718 14.8071ZM6.46602 13.6898C3.70688 16.1671 5.32306 20.5636 9.04001 20.6364L9.06939 19.1367C6.72298 19.0907 5.71474 16.3803 7.46814 14.806L6.46602 13.6898ZM10.4362 12.2406C11.3204 11.5059 12.6132 11.5249 13.4967 12.2864L14.476 11.1502C13.0502 9.92129 10.938 9.87327 9.4775 11.087L10.4362 12.2406Z" fill="#AEAEB2"/>
<path d="M6.03325 9.79897C6.55873 10.8321 6.37255 11.9811 5.6174 12.3651C4.86225 12.7492 3.8241 12.223 3.29862 11.1898C2.77314 10.1566 2.95932 9.00774 3.71447 8.62367C4.46962 8.23959 5.50777 8.7658 6.03325 9.79897Z" stroke="#AEAEB2" stroke-width="1.5"/>
<path d="M17.9666 9.79897C17.4411 10.8321 17.6273 11.9811 18.3824 12.3651C19.1376 12.7492 20.1757 12.223 20.7012 11.1898C21.2267 10.1566 21.0405 9.00774 20.2854 8.62367C19.5302 8.23959 18.4921 8.7658 17.9666 9.79897Z" stroke="#AEAEB2" stroke-width="1.5"/>
<path d="M10.6587 6.6963C10.9645 7.83776 10.525 8.94731 9.67687 9.17456C8.82879 9.4018 7.89334 8.66068 7.58749 7.51922C7.28163 6.37776 7.7212 5.26821 8.56928 5.04096C9.41736 4.81372 10.3528 5.55484 10.6587 6.6963Z" stroke="#AEAEB2" stroke-width="1.5"/>
<path d="M13.15 6.6963C12.8441 7.83776 13.2837 8.94731 14.1318 9.17456C14.9799 9.4018 15.9153 8.66068 16.2212 7.51922C16.527 6.37776 16.0875 5.26821 15.2394 5.04096C14.3913 4.81372 13.4558 5.55484 13.15 6.6963Z" stroke="#AEAEB2" stroke-width="1.5"/>
</svg>
