<svg width="24" height="24" viewBox="0 0 24 24" fill="none" xmlns="http://www.w3.org/2000/svg">
<g clip-path="url(#clip0_2_2724)">
<path d="M3 13.2857L2.25 13.2857L3 13.2857ZM3 17.1429L3.75 17.1429L3 17.1429ZM7.60714 3C7.60714 2.58579 7.27136 2.25 6.85714 2.25C6.44293 2.25 6.10714 2.58579 6.10714 3H7.60714ZM17.6786 3C17.6786 2.58579 17.3428 2.25 16.9286 2.25C16.5144 2.25 16.1786 2.58579 16.1786 3H17.6786ZM2.25 13.2857L2.25 17.1429L3.75 17.1429L3.75 13.2857L2.25 13.2857ZM20.0357 13.2857V17.1429H21.5357V13.2857H20.0357ZM6.85714 21.75H16.9286V20.25H6.85714V21.75ZM20.0357 17.1429C20.0357 18.8589 18.6446 20.25 16.9286 20.25V21.75C19.473 21.75 21.5357 19.6873 21.5357 17.1429H20.0357ZM2.25 17.1429C2.25 19.6873 4.31269 21.75 6.85714 21.75V20.25C5.14112 20.25 3.75 18.8589 3.75 17.1429H2.25ZM3.75 13.2857L3.75 9L2.25 9L2.25 13.2857L3.75 13.2857ZM21.5357 13.2857V9H20.0357V13.2857H21.5357ZM6.85714 5.89286H16.9286V4.39286H6.85714V5.89286ZM21.5357 9C21.5357 6.45554 19.473 4.39286 16.9286 4.39286V5.89286C18.6446 5.89286 20.0357 7.28397 20.0357 9H21.5357ZM3.75 9C3.75 7.28397 5.14112 5.89286 6.85714 5.89286V4.39286C4.31269 4.39286 2.25 6.45555 2.25 9H3.75ZM3 9.75H20.7857V8.25H3V9.75ZM7.60714 5.14286V3H6.10714V5.14286H7.60714ZM17.6786 5.14286V3H16.1786V5.14286H17.6786Z" fill="#AEAEB2"/>
</g>
<defs>
<clipPath id="clip0_2_2724">
<rect width="24" height="24" fill="white"/>
</clipPath>
</defs>
</svg>
