<svg width="24" height="24" viewBox="0 0 24 24" fill="none" xmlns="http://www.w3.org/2000/svg">
<path d="M3.7198 8.54291L4.30753 9.00881L4.30753 9.00881L3.7198 8.54291ZM4.89474 7.37838L5.34766 7.97618L5.34766 7.97618L4.89474 7.37838ZM12 3V3.75V3ZM20.2802 8.54291L19.6925 9.00881L19.6925 9.00881L20.2802 8.54291ZM19.1053 7.37838L18.6523 7.97618L18.6523 7.97618L19.1053 7.37838ZM5.9125 20.5856L5.58538 21.2605L5.9125 20.5856ZM6.23963 19.9107C5.63209 19.6162 4.99146 19.186 4.51238 18.6515C4.03703 18.1211 3.75 17.5239 3.75 16.8649H2.25C2.25 17.9933 2.74938 18.9318 3.39535 19.6526C4.0376 20.3692 4.85322 20.9056 5.58538 21.2605L6.23963 19.9107ZM3.75 16.8649V10.8084H2.25V16.8649H3.75ZM4.30753 9.00881C4.57737 8.66841 4.91949 8.30057 5.34766 7.97618L4.44182 6.78058C3.88687 7.20103 3.4569 7.66722 3.13206 8.077L4.30753 9.00881ZM5.34766 7.97618C5.77031 7.65596 6.28588 7.21046 6.82514 6.75321C7.37498 6.28698 7.96908 5.79128 8.5838 5.33563C9.20002 4.87886 9.81933 4.47571 10.4149 4.18875C11.0154 3.89944 11.5474 3.75 12 3.75L12 2.25C11.2364 2.25 10.4728 2.49583 9.76382 2.83743C9.04994 3.18138 8.34594 3.64479 7.69056 4.13058C7.03367 4.6175 6.40787 5.14038 5.85505 5.60912C5.29165 6.08684 4.8218 6.49269 4.44182 6.78058L5.34766 7.97618ZM3.75 10.8084C3.75 10.1232 3.93117 9.48359 4.30753 9.00881L3.13206 8.077C2.49426 8.88159 2.25 9.87784 2.25 10.8084H3.75ZM18.4146 21.2605C19.1468 20.9056 19.9624 20.3692 20.6047 19.6526C21.2506 18.9318 21.75 17.9933 21.75 16.8649H20.25C20.25 17.5239 19.963 18.1211 19.4876 18.6515C19.0085 19.186 18.3679 19.6162 17.7604 19.9107L18.4146 21.2605ZM21.75 16.8649V10.8084H20.25V16.8649H21.75ZM20.8679 8.077C20.5431 7.66722 20.1131 7.20103 19.5582 6.78058L18.6523 7.97618C19.0805 8.30057 19.4226 8.66841 19.6925 9.00881L20.8679 8.077ZM19.5582 6.78058C19.1782 6.49269 18.7084 6.08684 18.145 5.60912C17.5921 5.14038 16.9663 4.6175 16.3094 4.13058C15.6541 3.64479 14.9501 3.18138 14.2362 2.83743C13.5272 2.49583 12.7636 2.25 12 2.25V3.75C12.4526 3.75 12.9846 3.89944 13.5851 4.18875C14.1807 4.47571 14.8 4.87886 15.4162 5.33563C16.0309 5.79128 16.625 6.28698 17.1749 6.75321C17.7141 7.21046 18.2297 7.65596 18.6523 7.97618L19.5582 6.78058ZM21.75 10.8084C21.75 9.87784 21.5057 8.88159 20.8679 8.077L19.6925 9.00881C20.0688 9.48359 20.25 10.1232 20.25 10.8084H21.75ZM15.7826 20.25H8.21744V21.75H15.7826V20.25ZM17.7604 19.9107C17.2058 20.1795 16.5449 20.25 15.7826 20.25V21.75C16.6028 21.75 17.5451 21.6819 18.4146 21.2605L17.7604 19.9107ZM5.58538 21.2605C6.45489 21.6819 7.39717 21.75 8.21744 21.75V20.25C7.45515 20.25 6.79422 20.1795 6.23963 19.9107L5.58538 21.2605Z" fill="#AEAEB2"/>
<path d="M11.2998 16.7284L11.8144 16.1828L11.8144 16.1828L11.2998 16.7284ZM8.59112 13.8809L7.96082 14.2874L7.96082 14.2874L8.59112 13.8809ZM10.1364 10.3761L10.1054 9.62676L10.1364 10.3761ZM11.8502 11.1269L12.3366 10.556L12.3366 10.556L11.8502 11.1269ZM12.7227 16.7272L13.2389 17.2713L13.2389 17.2713L12.7227 16.7272ZM15.4089 13.8809L16.0392 14.2874L16.0392 14.2874L15.4089 13.8809ZM13.8636 10.3761L13.8946 9.62676L13.8946 9.62676L13.8636 10.3761ZM12.1715 11.1261L11.6811 10.5586L11.6811 10.5586L12.1715 11.1261ZM11.8144 16.1828C11.2973 15.6951 10.7161 15.127 10.2235 14.6166C9.71172 14.0864 9.34948 13.673 9.22142 13.4745L7.96082 14.2874C8.18183 14.6301 8.65062 15.1469 9.14425 15.6583C9.65706 16.1896 10.2557 16.7746 10.7852 17.274L11.8144 16.1828ZM9.22142 13.4745C9.05656 13.2188 8.91587 12.5819 9.05892 12.006C9.12535 11.7386 9.24199 11.5329 9.39757 11.393C9.54506 11.2604 9.7771 11.1416 10.1674 11.1255L10.1054 9.62676C9.40852 9.65556 8.83137 9.88498 8.39472 10.2775C7.96616 10.6628 7.72371 11.1592 7.60317 11.6444C7.37228 12.5738 7.54613 13.6444 7.96082 14.2874L9.22142 13.4745ZM12.3366 10.556C12.1292 10.3793 11.8173 10.1479 11.45 9.96085C11.0914 9.77821 10.617 9.60562 10.1054 9.62676L10.1674 11.1255C10.317 11.1193 10.5242 11.1727 10.7694 11.2975C11.006 11.418 11.2205 11.5757 11.3637 11.6978L12.3366 10.556ZM13.2389 17.2713C13.7659 16.7713 14.3591 16.1863 14.8671 15.6552C15.3568 15.1432 15.8195 14.6281 16.0392 14.2874L14.7786 13.4745C14.6493 13.6749 14.2892 14.0893 13.7831 14.6184C13.2953 15.1284 12.7199 15.696 12.2065 16.1831L13.2389 17.2713ZM16.0392 14.2874C16.4539 13.6444 16.6277 12.5738 16.3968 11.6444C16.2763 11.1592 16.0338 10.6628 15.6053 10.2775C15.1686 9.88498 14.5915 9.65556 13.8946 9.62676L13.8326 11.1255C14.2229 11.1416 14.4549 11.2604 14.6024 11.393C14.758 11.5329 14.8746 11.7386 14.9411 12.006C15.0841 12.5819 14.9434 13.2188 14.7786 13.4745L16.0392 14.2874ZM12.6618 11.6936C12.804 11.5708 13.0131 11.4143 13.2438 11.2951C13.4823 11.1719 13.6843 11.1194 13.8326 11.1255L13.8946 9.62676C13.3822 9.60558 12.9112 9.7786 12.5552 9.96249C12.1915 10.1504 11.8848 10.3826 11.6811 10.5586L12.6618 11.6936ZM11.3637 11.6977C11.7356 12.0146 12.289 12.0157 12.6618 11.6936L11.6811 10.5586C11.8717 10.3939 12.148 10.3953 12.3366 10.556L11.3637 11.6977ZM10.7852 17.274C11.475 17.9246 12.5493 17.9255 13.2389 17.2713L12.2065 16.1831C12.0961 16.2878 11.9268 16.2888 11.8144 16.1828L10.7852 17.274Z" fill="#AEAEB2"/>
</svg>
