<svg width="24" height="25" viewBox="0 0 24 25" fill="none" xmlns="http://www.w3.org/2000/svg">
<g clip-path="url(#clip0_2_2728)">
<path d="M7.62684 5.16783L10.8137 3.33541C11.7081 2.8882 13.0497 2.8882 13.9441 3.33541L17.4933 5.48362C17.959 5.7655 18.4179 6.06819 18.769 6.48421C19.2152 7.01295 19.7578 7.87233 19.7578 8.92547V8.92605C19.7578 10.7144 19.7578 11.3852 19.5342 12.5031C19.2197 14.075 18.7089 16.138 16.0683 18.8763C15.7031 19.255 15.2944 19.5883 14.8664 19.894L13.9441 20.5528C13.646 20.7019 13.2733 21 12.3789 21C11.4845 21 11.1118 20.7019 10.8137 20.5528L9.97127 19.9511C9.49021 19.6075 9.03398 19.2269 8.62788 18.7973C5.98836 16.005 5.84868 14.6909 5.2236 12.5031C5 11.2733 5 10.7144 5 8.92605V8.92547C5 8.21334 5.21262 7.58981 5.46858 7.09719C5.92288 6.22281 6.77262 5.659 7.62684 5.16783Z" stroke="#AEAEB2" stroke-width="1.5" stroke-linecap="round" stroke-linejoin="round"/>
<path d="M9.02539 10.491L11.485 12.9506L15.7335 8.70215" stroke="#AEAEB2" stroke-width="1.5" stroke-linecap="round" stroke-linejoin="round"/>
</g>
<defs>
<clipPath id="clip0_2_2728">
<rect width="24" height="24" fill="white"/>
</clipPath>
</defs>
</svg>
