<svg width="24" height="24" viewBox="0 0 24 24" fill="none" xmlns="http://www.w3.org/2000/svg">
<path d="M12 24C18.5647 24 24 18.5647 24 12C24 5.44706 18.5529 0 11.9882 0C5.43529 0 0 5.44706 0 12C0 18.5647 5.44706 24 12 24ZM12 11.6353C10.2824 11.6235 8.88235 10.1765 8.88235 8.22353C8.88235 6.41176 10.2824 4.90588 12 4.90588C13.7176 4.90588 15.1176 6.41176 15.1176 8.22353C15.1176 10.1765 13.7176 11.6471 12 11.6353ZM6.45882 18.1647C5.96471 18.1647 5.74118 17.8471 5.74118 17.4C5.74118 16.0824 7.74118 12.6353 12 12.6353C16.2588 12.6353 18.2588 16.0824 18.2588 17.4C18.2588 17.8471 18.0353 18.1647 17.5412 18.1647H6.45882Z" fill="#4E519D"/>
</svg>
